# xmcd CD database file
#
# Track frame offsets:
#	183
#	21728
#	39575
#	62250
#
# Disc length: 1083 seconds
#
# Revision: 0
# Processed by: cddbd v1.4PL0 Copyright (c) Steve Scherf et al.
# Submitted via: CDex 1.40Release
#
DISCID=2e043904
DTITLE=Martin Stephenson - Wholly Humble Heart
DYEAR=1988
DGENRE=Country
TTITLE0=Wholly Hmble Heart
TTITLE1=Get Get One
TTITLE2=I Can See (Live)
TTITLE3=Slow Loving (Live)
EXTD=YEAR: 1988 ID3G: 2
EXTT0=
EXTT1=
EXTT2=
EXTT3=
PLAYORDER=
